<?xml version="1.0" encoding="utf-8"?>
<!-- Generator: Adobe Illustrator 19.0.0, SVG Export Plug-In . SVG Version: 6.00 Build 0)  -->
<svg version="1.1" id="Layer_1" xmlns="http://www.w3.org/2000/svg" xmlns:xlink="http://www.w3.org/1999/xlink" x="0px" y="0px"
	 viewBox="0 0 1596 1780" style="enable-background:new 0 0 1596 1780;" xml:space="preserve">
<style type="text/css">
	.st0{fill:#EC008C;}
	.st1{fill:#FFFFFF;}
</style>
<polygon class="st0" points="936.2,184.8 936.2,184.8 936.2,184.7 "/>
<g>
	<path class="st1" d="M866.9,1087.5c-24.7,0-32.9,17.3-32.9,39.2v58.4h64.3v-58.4C898.3,1103.6,890.1,1087.5,866.9,1087.5"/>
	<path class="st1" d="M760.2,1098.9c-20.4,0-27.1,14.5-27.1,29.8v56.5h53.7v-56.5C786.9,1116.1,780.2,1098.9,760.2,1098.9"/>
	<path class="st1" d="M1528.3,688.9c-26.6-13-55.9-14.6-82.2-6.7c-12.8,3.8-26.6,2.6-38.6-3.3L1209,582.2l-41.4-20.2
		c1.2-6.8,1.7-14.2-0.3-20.6l-7.4-27.7c-0.4-1.1-0.7-2.2-0.9-3.4l-2.4-10.6l-4.5-29.5c-0.1-2.1-0.2-5.6-0.3-7.8
		c1.2-18-5.8-35.6-19.3-47.8l-10.2-9.2l-19.4-17.4c-11.5-10.4-27-15.8-42.5-15c-0.4,0-0.7,0.1-1.1,0.1c0,0,0,0-0.1,0
		c-3.5,0.1-6.6-2.2-7.5-5.6l0,0l-0.4-17.5c-0.5-20.4-11-39.3-28.1-50.4l-35.8-23.4c-9.5-6.2-19.6-9.7-30.8-10.1v25.4h-73v-73h17.8
		c-7.3-8.7-16.8-15.5-27.8-19.3l-42-14.8c-8-2.8-16.3-4-24.7-3.5l0,0c-10,0.5-19.7,3.4-28.3,8.4c0,0,0,0,0,0
		c-0.6-6.6-2-13.1-4.3-19.1l-7.3-18.9c-7.7-19.8-23.8-33.5-43.3-36.7l-38.5-6.2c-3.7-0.6-7.4-0.8-11.2-0.6h0
		c-10.7,0.6-32.1,10.6-40.9,17l-76.1,48.5c-4.9,3.4-8.4,6.9-11,10.7c-6.8,9.9-11.5,20.3-14.9,31.9c-1.2,4.3-2.3,8.7-3.2,13.4
		c0,0,0,0,0,0c-4.9,4.3-9.5,9.1-13.6,14.3L282.2,130.6c-13.4-6.5-23.3-18.3-27.8-32.4c-10-31.4-32.4-58.9-64.3-74.4
		C127.4-6.9,51.7,19.7,22,83c-28.3,60.5-3.5,133.5,55.8,164.1c32.4,16.7,68.4,17.9,100,6.4c13.7-5,29-3.8,42.1,2.6l261.2,127.3
		c-0.6,6.6-1.3,12.9-2.1,18.7c-2,14.1-4.9,27.6-12.3,39.7l0,0c-7.7,9.4-14.1,19.9-18.9,30.6v0l-3.5,5.7c0,0,0,0,0,0
		c-3.4,8.7-5.3,17.8-6,27c-0.7,5.4-0.8,10.5-0.4,15.2c0.3,3.1,0.7,6.2,1.1,9.3c4.6,37.6,23.9,75.2,35.1,101.1
		c9.7,22.5,33.5,87.5,70.1,177.7c11.5,28.3,43.1,57.6,50.5,109.6c9.2,64.3,22.3,252.7,17.8,330.3l-8.7,156.6l-3.1,177
		c-7.1,72.1-14.2,143.7-18,184.2h94v-142.5c0-49.4,22.4-98.1,78.8-98.1c30.2,0,58.8,14.5,70.2,43.9h0.8
		c7.1-29.8,40.4-38.4,67.1-40.8c11.8-0.8,53-2,63.2-11.8v72.2c-9.4,6.3-36.9,7.5-44.7,8.2c-28.2,2-57.3,6.7-57.3,40.8v55.3h102v72.7
		h200l-94.1-388.5c-3.2-16-8.7-40.2-11.9-56.2l-27.9-150.7c0,0-14.6-96.8-14.8-146.7c-2.2-40.6,26.2-162.1,50.2-194.9l17.1-26.2
		c22-31.4,47.6-64.2,62.1-99.4l59.3,28.9l150.7,73.4c11.8,5.7,21.2,15.5,26.1,27.6c10.8,26.7,31.6,49.3,60.5,61.7
		c54.6,23.4,118.9-0.1,145.7-53.1C1608.3,785.3,1585,716.6,1528.3,688.9 M222.6,190l-40.7,27.5l-31.1,21c-5.3,3.6-12.1,4.1-17.9,1.3
		l-77.9-37.9c-5.8-2.8-9.6-8.5-10-14.9L39,100.5c-0.4-6.4,2.5-12.5,7.9-16.1l71.8-48.5c5.3-3.6,12.1-4.1,17.9-1.3l77.9,37.9
		c5.8,2.8,9.6,8.5,10,14.9l2.6,37.4l3.4,49C230.9,180.3,227.9,186.4,222.6,190 M676.7,220.7h69.4l118.1,18v32.6l-118.1,18h-69.4
		V220.7z M676.7,310.9h62.8v83.5h217.3v73H739.4V551h-62.8V310.9z M676.7,615.9H894V485.3h62.8v203.6H676.7V615.9z M956.7,1503.3
		H676.7v-223.2h58.4v150.2h49V1293h56.5v137.3H894v-154.1h62.8V1503.3z M956.7,1258.1H676.7v-131c-0.8-48.2,11.8-101.2,70.2-101.2
		c25.1,0,45.5,14.9,56.5,36.9c8.6-29.8,34.5-48.2,66.3-48.2c66.7,0,87.1,49,87.1,109V1258.1z M816.7,1005.2
		c-81.9,0-148.2-66.4-148.2-148.2s66.4-148.2,148.2-148.2s148.2,66.4,148.2,148.2S898.6,1005.2,816.7,1005.2 M1556.4,838.6
		l-62.4,42.1c-5.3,3.6-12.1,4.1-17.9,1.3l-67.7-33c-5.8-2.8-9.6-8.5-10-14.9l-0.3-3.9l-5-71.3c-0.4-6.4,2.5-12.5,7.9-16.1l57.8-39
		l4.6-3.1c5.3-3.6,12.1-4.1,17.9-1.3l67.7,33c5.8,2.8,9.6,8.5,10,14.9l5.3,75.1C1564.7,828.9,1561.7,835,1556.4,838.6"/>
	<path class="st1" d="M765.3,1598.4c-20.8,0-30.2,16.5-30.2,36.9v58.1h63.1v-61.2C798.3,1610.2,786.5,1598.4,765.3,1598.4"/>
	<path class="st1" d="M887.6,807.3l-63.3-36.5c-4.7-2.7-10.5-2.7-15.1,0l-63.3,36.5c-4.7,2.7-7.6,7.7-7.6,13.1v73.1
		c0,5.4,2.9,10.4,7.6,13.1l63.3,36.5c4.7,2.7,10.5,2.7,15.1,0l63.3-36.5c4.7-2.7,7.6-7.7,7.6-13.1v-73.1
		C895.1,815,892.2,810,887.6,807.3"/>
</g>
</svg>
